<svg width="25" height="26" viewBox="0 0 25 26" fill="none" xmlns="http://www.w3.org/2000/svg">
<path d="M23.7607 13.7813L14.0625 4.08302C13.9179 3.93729 13.7459 3.82176 13.5562 3.74313C13.3666 3.6645 13.1633 3.62435 12.958 3.62501H3.90626C3.69906 3.62501 3.50034 3.70732 3.35383 3.85383C3.20732 4.00034 3.12501 4.19906 3.12501 4.40626V13.458C3.12435 13.6633 3.1645 13.8666 3.24313 14.0562C3.32176 14.2459 3.43729 14.4179 3.58302 14.5625L13.2813 24.2607C13.4264 24.4059 13.5986 24.521 13.7882 24.5995C13.9778 24.6781 14.181 24.7185 14.3862 24.7185C14.5915 24.7185 14.7947 24.6781 14.9843 24.5995C15.1739 24.521 15.3461 24.4059 15.4912 24.2607L23.7607 15.9912C23.9059 15.8461 24.021 15.6739 24.0995 15.4843C24.1781 15.2947 24.2185 15.0915 24.2185 14.8862C24.2185 14.681 24.1781 14.4778 24.0995 14.2882C24.021 14.0986 23.9059 13.9264 23.7607 13.7813ZM14.3857 23.1563L4.68751 13.458V5.18751H12.958L22.6563 14.8857L14.3857 23.1563ZM9.37501 8.70313C9.37501 8.93491 9.30628 9.16148 9.17751 9.35419C9.04874 9.5469 8.86572 9.69711 8.65159 9.7858C8.43746 9.8745 8.20183 9.89771 7.97451 9.85249C7.74719 9.80727 7.53838 9.69566 7.37449 9.53177C7.2106 9.36788 7.09899 9.15908 7.05377 8.93175C7.00856 8.70443 7.03176 8.46881 7.12046 8.25468C7.20916 8.04054 7.35936 7.85752 7.55207 7.72875C7.74479 7.59999 7.97136 7.53126 8.20313 7.53126C8.51393 7.53126 8.812 7.65472 9.03177 7.87449C9.25154 8.09426 9.37501 8.39233 9.37501 8.70313Z" fill="#3D3D3D"/>
</svg>
