<svg width="25" height="26" viewBox="0 0 25 26" fill="none" xmlns="http://www.w3.org/2000/svg">
<path d="M21.6601 17.6816C21.1181 16.748 20.3125 14.1064 20.3125 10.6562C20.3125 8.58425 19.4894 6.59711 18.0242 5.13198C16.5591 3.66685 14.572 2.84375 12.5 2.84375C10.428 2.84375 8.44082 3.66685 6.9757 5.13198C5.51057 6.59711 4.68747 8.58425 4.68747 10.6562C4.68747 14.1074 3.88083 16.748 3.33883 17.6816C3.20043 17.919 3.12705 18.1886 3.12611 18.4634C3.12516 18.7381 3.19669 19.0083 3.33346 19.2466C3.47024 19.4849 3.66743 19.6829 3.90515 19.8206C4.14287 19.9584 4.41271 20.0311 4.68747 20.0312H8.67282C8.85307 20.9132 9.33241 21.7059 10.0298 22.2752C10.7272 22.8444 11.5997 23.1554 12.5 23.1554C13.4002 23.1554 14.2728 22.8444 14.9701 22.2752C15.6675 21.7059 16.1469 20.9132 16.3271 20.0312H20.3125C20.5871 20.0309 20.8569 19.9581 21.0944 19.8203C21.332 19.6824 21.5291 19.4844 21.6657 19.2462C21.8024 19.0079 21.8738 18.7378 21.8729 18.4631C21.8719 18.1885 21.7985 17.9189 21.6601 17.6816ZM12.5 21.5938C12.0154 21.5936 11.5428 21.4433 11.1472 21.1635C10.7516 20.8836 10.4525 20.4881 10.291 20.0312H14.709C14.5474 20.4881 14.2483 20.8836 13.8527 21.1635C13.4571 21.4433 12.9845 21.5936 12.5 21.5938ZM4.68747 18.4688C5.43942 17.1758 6.24997 14.1797 6.24997 10.6562C6.24997 8.99865 6.90845 7.40894 8.08055 6.23683C9.25265 5.06473 10.8424 4.40625 12.5 4.40625C14.1576 4.40625 15.7473 5.06473 16.9194 6.23683C18.0915 7.40894 18.75 8.99865 18.75 10.6562C18.75 14.1768 19.5586 17.1729 20.3125 18.4688H4.68747Z" fill="#3D3D3D"/>
</svg>
