<svg width="32" height="32" viewBox="0 0 32 32" fill="none" xmlns="http://www.w3.org/2000/svg">
<path d="M27.4138 13.5853L17.4138 3.58532C17.0387 3.21053 16.5302 3 16 3C15.4698 3 14.9613 3.21053 14.5863 3.58532L4.58626 13.5853C4.39964 13.7706 4.25171 13.991 4.15107 14.234C4.05042 14.4769 3.99908 14.7374 4.00001 15.0003V27.0003C4.00001 27.2655 4.10537 27.5199 4.29291 27.7074C4.48044 27.895 4.7348 28.0003 5.00001 28.0003H13C13.2652 28.0003 13.5196 27.895 13.7071 27.7074C13.8947 27.5199 14 27.2655 14 27.0003V20.0003H18V27.0003C18 27.2655 18.1054 27.5199 18.2929 27.7074C18.4804 27.895 18.7348 28.0003 19 28.0003H27C27.2652 28.0003 27.5196 27.895 27.7071 27.7074C27.8947 27.5199 28 27.2655 28 27.0003V15.0003C28.0009 14.7374 27.9496 14.4769 27.849 14.234C27.7483 13.991 27.6004 13.7706 27.4138 13.5853ZM26 26.0003H20V19.0003C20 18.7351 19.8947 18.4808 19.7071 18.2932C19.5196 18.1057 19.2652 18.0003 19 18.0003H13C12.7348 18.0003 12.4804 18.1057 12.2929 18.2932C12.1054 18.4808 12 18.7351 12 19.0003V26.0003H6.00001V15.0003L16 5.00032L26 15.0003V26.0003Z" fill="#F6F6F6"/>
</svg>
