<svg width="19" height="18" viewBox="0 0 19 18" fill="none" xmlns="http://www.w3.org/2000/svg">
<path opacity="0.2" d="M11.8125 7.03125C11.8125 7.86564 11.5651 8.68129 11.1015 9.37506C10.638 10.0688 9.97907 10.6096 9.2082 10.9289C8.43732 11.2482 7.58907 11.3317 6.77071 11.1689C5.95236 11.0062 5.20065 10.6044 4.61065 10.0144C4.02064 9.42435 3.61885 8.67264 3.45606 7.85429C3.29328 7.03593 3.37683 6.18768 3.69614 5.4168C4.01544 4.64593 4.55617 3.98705 5.24994 3.52349C5.94371 3.05993 6.75936 2.8125 7.59375 2.8125C8.71263 2.8125 9.78569 3.25697 10.5769 4.04814C11.368 4.83931 11.8125 5.91237 11.8125 7.03125Z" fill="#F42534"/>
<path d="M10.1249 11.0868C11.0067 10.5375 11.6857 9.7161 12.059 8.74667C12.4324 7.77724 12.4798 6.7126 12.1942 5.7138C11.9086 4.715 11.3055 3.83639 10.476 3.2109C9.64662 2.58541 8.63605 2.24707 7.59721 2.24707C6.55838 2.24707 5.54781 2.58541 4.71839 3.2109C3.88897 3.83639 3.28583 4.715 3.00022 5.7138C2.71461 6.7126 2.76207 7.77724 3.13542 8.74667C3.50877 9.7161 4.18769 10.5375 5.06948 11.0868C3.61753 11.5621 2.31112 12.4501 1.26065 13.7003C1.21143 13.7566 1.17393 13.8221 1.15033 13.893C1.12673 13.964 1.11752 14.0389 1.12322 14.1135C1.12892 14.188 1.14943 14.2607 1.18355 14.3272C1.21766 14.3937 1.2647 14.4528 1.32191 14.5009C1.37912 14.5491 1.44535 14.5853 1.51673 14.6076C1.58811 14.6298 1.66321 14.6376 1.73764 14.6305C1.81207 14.6234 1.88433 14.6015 1.9502 14.5661C2.01607 14.5308 2.07423 14.4826 2.12128 14.4245C3.53315 12.7398 5.47799 11.8124 7.5937 11.8124C9.7094 11.8124 11.6542 12.7398 13.0689 14.4245C13.165 14.5388 13.3025 14.6103 13.4512 14.6232C13.6 14.6361 13.7477 14.5894 13.8621 14.4934C13.9764 14.3974 14.0478 14.2598 14.0608 14.1111C14.0737 13.9624 14.027 13.8146 13.931 13.7003C12.8798 12.4501 11.5734 11.5621 10.1249 11.0868ZM3.93745 7.03113C3.93745 6.30799 4.15188 5.6011 4.55364 4.99983C4.95539 4.39856 5.52642 3.92993 6.19451 3.6532C6.8626 3.37646 7.59775 3.30406 8.307 3.44514C9.01624 3.58621 9.66772 3.93444 10.1791 4.44577C10.6904 4.95711 11.0386 5.60859 11.1797 6.31783C11.3208 7.02708 11.2484 7.76223 10.9716 8.43032C10.6949 9.09841 10.2263 9.66944 9.625 10.0712C9.02373 10.4729 8.31683 10.6874 7.5937 10.6874C6.62434 10.6863 5.69501 10.3007 5.00957 9.61526C4.32413 8.92982 3.93856 8.00049 3.93745 7.03113ZM17.7363 10.0595L17.4086 9.87035C17.4471 9.66684 17.4471 9.45793 17.4086 9.25441L17.7363 9.06527C17.8003 9.02834 17.8564 8.97916 17.9013 8.92055C17.9463 8.86194 17.9793 8.79505 17.9984 8.72368C18.0176 8.65232 18.0225 8.57789 18.0128 8.50463C18.0032 8.43138 17.9792 8.36075 17.9423 8.29676C17.9054 8.23277 17.8562 8.17668 17.7976 8.1317C17.739 8.08671 17.6721 8.05372 17.6007 8.03458C17.5293 8.01545 17.4549 8.01057 17.3817 8.0202C17.3084 8.02984 17.2378 8.05381 17.1738 8.09074L16.8454 8.28059C16.6883 8.14577 16.5076 8.04112 16.3124 7.97191V7.59363C16.3124 7.44445 16.2532 7.30137 16.1477 7.19588C16.0422 7.0904 15.8991 7.03113 15.7499 7.03113C15.6008 7.03113 15.4577 7.0904 15.3522 7.19588C15.2467 7.30137 15.1874 7.44445 15.1874 7.59363V7.97191C14.9923 8.04112 14.8116 8.14577 14.6545 8.28059L14.3261 8.09074C14.2621 8.05381 14.1915 8.02984 14.1182 8.0202C14.045 8.01057 13.9706 8.01545 13.8992 8.03458C13.8278 8.05372 13.7609 8.08671 13.7023 8.1317C13.6437 8.17668 13.5945 8.23277 13.5576 8.29676C13.5207 8.36075 13.4967 8.43138 13.4871 8.50463C13.4774 8.57789 13.4823 8.65232 13.5014 8.72368C13.5206 8.79505 13.5536 8.86194 13.5986 8.92055C13.6435 8.97916 13.6996 9.02834 13.7636 9.06527L14.0913 9.25441C14.0528 9.45793 14.0528 9.66684 14.0913 9.87035L13.7636 10.0595C13.6996 10.0964 13.6435 10.1456 13.5986 10.2042C13.5536 10.2628 13.5206 10.3297 13.5014 10.4011C13.4823 10.4724 13.4774 10.5469 13.4871 10.6201C13.4967 10.6934 13.5207 10.764 13.5576 10.828C13.5945 10.892 13.6437 10.9481 13.7023 10.9931C13.7609 11.0381 13.8278 11.071 13.8992 11.0902C13.9706 11.1093 14.045 11.1142 14.1182 11.1046C14.1915 11.0949 14.2621 11.071 14.3261 11.034L14.6545 10.8442C14.8116 10.979 14.9923 11.0836 15.1874 11.1529V11.5311C15.1874 11.6803 15.2467 11.8234 15.3522 11.9289C15.4577 12.0344 15.6008 12.0936 15.7499 12.0936C15.8991 12.0936 16.0422 12.0344 16.1477 11.9289C16.2532 11.8234 16.3124 11.6803 16.3124 11.5311V11.1529C16.5076 11.0836 16.6883 10.979 16.8454 10.8442L17.1738 11.034C17.2592 11.0836 17.3563 11.1096 17.455 11.1093C17.5789 11.1093 17.6993 11.0685 17.7976 10.9931C17.8959 10.9177 17.9665 10.812 17.9986 10.6923C18.0306 10.5727 18.0223 10.4458 17.9749 10.3314C17.9274 10.2169 17.8436 10.1214 17.7363 10.0595ZM15.7499 10.1249C15.6387 10.1249 15.5299 10.0919 15.4374 10.0301C15.3449 9.96828 15.2728 9.88042 15.2303 9.77764C15.1877 9.67486 15.1766 9.56176 15.1983 9.45264C15.22 9.34353 15.2735 9.2433 15.3522 9.16463C15.4309 9.08597 15.5311 9.03239 15.6402 9.01069C15.7493 8.98899 15.8624 9.00013 15.9652 9.0427C16.068 9.08527 16.1558 9.15737 16.2176 9.24987C16.2795 9.34238 16.3124 9.45113 16.3124 9.56238C16.3124 9.71157 16.2532 9.85464 16.1477 9.96013C16.0422 10.0656 15.8991 10.1249 15.7499 10.1249Z" fill="#F42534"/>
</svg>
