<svg width="32" height="32" viewBox="0 0 32 32" fill="none" xmlns="http://www.w3.org/2000/svg">
<path d="M28.7075 7.29231L24.7075 3.29231C24.6146 3.19933 24.5043 3.12557 24.3829 3.07525C24.2615 3.02493 24.1314 2.99902 24 2.99902C23.8686 2.99902 23.7385 3.02493 23.6171 3.07525C23.4957 3.12557 23.3854 3.19933 23.2925 3.29231L11.2925 15.2923C11.1997 15.3852 11.1261 15.4956 11.0759 15.617C11.0257 15.7384 10.9999 15.8684 11 15.9998V19.9998C11 20.265 11.1054 20.5194 11.2929 20.7069C11.4804 20.8945 11.7348 20.9998 12 20.9998H16C16.1314 20.9999 16.2615 20.9741 16.3829 20.9239C16.5042 20.8738 16.6146 20.8001 16.7075 20.7073L28.7075 8.70731C28.8005 8.61444 28.8742 8.50415 28.9246 8.38275C28.9749 8.26135 29.0008 8.13123 29.0008 7.99981C29.0008 7.86839 28.9749 7.73827 28.9246 7.61687C28.8742 7.49547 28.8005 7.38518 28.7075 7.29231ZM15.5863 18.9998H13V16.4136L21 8.41356L23.5863 10.9998L15.5863 18.9998ZM25 9.58606L22.4137 6.99981L24 5.41356L26.5863 7.99981L25 9.58606ZM28 15.9998V25.9998C28 26.5302 27.7893 27.0389 27.4142 27.414C27.0391 27.7891 26.5304 27.9998 26 27.9998H6C5.46957 27.9998 4.96086 27.7891 4.58579 27.414C4.21071 27.0389 4 26.5302 4 25.9998V5.99981C4 5.46938 4.21071 4.96067 4.58579 4.5856C4.96086 4.21052 5.46957 3.99981 6 3.99981H16C16.2652 3.99981 16.5196 4.10517 16.7071 4.2927C16.8946 4.48024 17 4.73459 17 4.99981C17 5.26503 16.8946 5.51938 16.7071 5.70692C16.5196 5.89445 16.2652 5.99981 16 5.99981H6V25.9998H26V15.9998C26 15.7346 26.1054 15.4802 26.2929 15.2927C26.4804 15.1052 26.7348 14.9998 27 14.9998C27.2652 14.9998 27.5196 15.1052 27.7071 15.2927C27.8946 15.4802 28 15.7346 28 15.9998Z" fill="#F6F6F6"/>
</svg>
