<svg width="18" height="18" viewBox="0 0 18 18" fill="none" xmlns="http://www.w3.org/2000/svg">
<path opacity="0.2" d="M15.75 3.9375V14.0625C15.75 14.3609 15.6315 14.647 15.4205 14.858C15.2095 15.069 14.9234 15.1875 14.625 15.1875H3.375V2.8125H14.625C14.9234 2.8125 15.2095 2.93103 15.4205 3.142C15.6315 3.35298 15.75 3.63913 15.75 3.9375Z" fill="#F42534"/>
<path d="M8.4375 15.1875C8.4375 15.3367 8.37824 15.4798 8.27275 15.5852C8.16726 15.6907 8.02418 15.75 7.875 15.75H3.375C3.22582 15.75 3.08274 15.6907 2.97725 15.5852C2.87176 15.4798 2.8125 15.3367 2.8125 15.1875V2.8125C2.8125 2.66332 2.87176 2.52024 2.97725 2.41475C3.08274 2.30926 3.22582 2.25 3.375 2.25H7.875C8.02418 2.25 8.16726 2.30926 8.27275 2.41475C8.37824 2.52024 8.4375 2.66332 8.4375 2.8125C8.4375 2.96168 8.37824 3.10476 8.27275 3.21025C8.16726 3.31574 8.02418 3.375 7.875 3.375H3.9375V14.625H7.875C8.02418 14.625 8.16726 14.6843 8.27275 14.7898C8.37824 14.8952 8.4375 15.0383 8.4375 15.1875ZM16.148 8.60203L13.3355 5.78953C13.2299 5.68398 13.0868 5.62469 12.9375 5.62469C12.7882 5.62469 12.6451 5.68398 12.5395 5.78953C12.434 5.89508 12.3747 6.03823 12.3747 6.1875C12.3747 6.33677 12.434 6.47992 12.5395 6.58547L14.3923 8.4375H7.875C7.72582 8.4375 7.58274 8.49676 7.47725 8.60225C7.37176 8.70774 7.3125 8.85082 7.3125 9C7.3125 9.14918 7.37176 9.29226 7.47725 9.39775C7.58274 9.50324 7.72582 9.5625 7.875 9.5625H14.3923L12.5395 11.4145C12.434 11.5201 12.3747 11.6632 12.3747 11.8125C12.3747 11.9618 12.434 12.1049 12.5395 12.2105C12.6451 12.316 12.7882 12.3753 12.9375 12.3753C13.0868 12.3753 13.2299 12.316 13.3355 12.2105L16.148 9.39797C16.2003 9.34573 16.2418 9.28369 16.2701 9.2154C16.2984 9.14712 16.3129 9.07392 16.3129 9C16.3129 8.92608 16.2984 8.85288 16.2701 8.7846C16.2418 8.71631 16.2003 8.65427 16.148 8.60203Z" fill="#F42534"/>
</svg>
