<svg width="142" height="168" viewBox="0 0 142 168" fill="none" xmlns="http://www.w3.org/2000/svg">
<g clip-path="url(#clip0_2143_12883)">
<path d="M100.984 140.982L102.389 168C102.389 168 42.9743 111.349 35.5723 94.7737C28.1703 78.1983 42.1035 37.196 42.1035 37.196L73.0178 54.2076L100.984 140.982Z" fill="#76C892"/>
<path d="M9.88287 25.855L0.739206 26.7274C0.739206 26.7274 -4.05035 37.196 10.7537 38.0684L9.88287 25.855Z" fill="#76C892"/>
<path d="M9.88287 41.9941L0.739206 42.8665C0.739206 42.8665 -4.05035 53.3352 10.7537 54.2076L9.88287 41.9941Z" fill="#76C892"/>
<path d="M9.88287 59.4419L0.739206 60.3143C0.739206 60.3143 -4.05035 70.7829 10.7537 71.6553L9.88287 59.4419Z" fill="#76C892"/>
<path d="M12.4954 76.8896L3.35176 77.762C3.35176 77.762 -1.4378 88.2307 13.3663 89.1031L12.4954 76.8896Z" fill="#76C892"/>
<path d="M5.4314 30.0606H6.1252V11.0201C6.12519 9.57295 6.40973 8.13994 6.96255 6.80291C7.51537 5.46589 8.32565 4.25104 9.34712 3.22773C10.3686 2.20441 11.5813 1.39268 12.9159 0.838862C14.2505 0.285048 15.681 1.10877e-06 17.1256 0H57.3932C58.8378 -2.95664e-06 60.2682 0.285039 61.6029 0.838849C62.9375 1.39266 64.1502 2.20439 65.1716 3.2277C66.1931 4.25101 67.0034 5.46586 67.5562 6.80288C68.1091 8.1399 68.3936 9.57291 68.3936 11.0201V115.478C68.3936 116.925 68.1091 118.358 67.5563 119.695C67.0034 121.032 66.1931 122.247 65.1717 123.27C64.1502 124.293 62.9375 125.105 61.6029 125.659C60.2683 126.213 58.8378 126.498 57.3932 126.498H17.1256C14.2081 126.498 11.4101 125.337 9.34717 123.27C7.28419 121.204 6.12521 118.4 6.12521 115.478V43.614H5.4314V30.0606Z" fill="#3F3D56"/>
<path d="M16.6818 2.86695H21.938C21.6963 3.46064 21.604 4.10476 21.6693 4.74259C21.7347 5.38041 21.9555 5.99236 22.3125 6.52452C22.6695 7.05668 23.1517 7.49273 23.7165 7.79424C24.2814 8.09575 24.9116 8.25348 25.5516 8.25353H48.6204C49.2604 8.25349 49.8906 8.09576 50.4554 7.79425C51.0203 7.49273 51.5025 7.05669 51.8595 6.52453C52.2165 5.99236 52.4373 5.38041 52.5026 4.74259C52.5679 4.10476 52.4757 3.46063 52.234 2.86694H57.1433C59.3221 2.86694 61.4116 3.73399 62.9522 5.27736C64.4928 6.82073 65.3583 8.91398 65.3583 11.0966V115.401C65.3583 116.482 65.1458 117.552 64.7329 118.55C64.3201 119.549 63.715 120.456 62.9522 121.22C62.1894 121.984 61.2837 122.591 60.287 123.004C59.2904 123.418 58.2221 123.631 57.1433 123.631H16.6818C15.603 123.631 14.5347 123.418 13.538 123.004C12.5414 122.591 11.6357 121.984 10.8729 121.22C10.1101 120.456 9.50496 119.549 9.09212 118.55C8.67928 117.552 8.4668 116.482 8.4668 115.401V11.0966C8.4668 10.0159 8.67928 8.94575 9.09212 7.94727C9.50496 6.9488 10.1101 6.04157 10.8729 5.27737C11.6357 4.51317 12.5414 3.90697 13.538 3.49339C14.5347 3.07982 15.603 2.86695 16.6818 2.86695Z" fill="white"/>
<path d="M45.5813 32.0879H28.2437V36.2791H45.5813V32.0879Z" fill="#F42534"/>
<path d="M46.4066 50.0974H27.4182V54.2886H46.4066V50.0974Z" fill="#E5E5E5"/>
<path d="M58.1026 59.1008H15.7222V63.2921H58.1026V59.1008Z" fill="#E5E5E5"/>
<path d="M58.1026 68.104H15.7222V72.2952H58.1026V68.104Z" fill="#E5E5E5"/>
<path d="M142 155.054L93.2645 99.3537L91.5229 63.5857L73.2356 33.0521L68.0106 19.9663C68.0106 19.9663 55.819 21.2749 65.8335 46.138L69.9699 59.4419C66.2413 67.4873 64.3096 76.2507 64.3096 85.1209V115.607C64.3096 122.785 98.4565 161.886 102.431 167.859L142 155.054Z" fill="#76C892"/>
<path opacity="0.2" d="M69.4443 35.6395L73.0798 33.8496L72.9559 33.5969L69.5968 35.2509L64.5261 21.9326L64.2637 22.0331L69.4443 35.6395Z" fill="black"/>
<path opacity="0.2" d="M0.787792 26.5948L0.690674 26.8589L6.07632 28.8463L6.17344 28.5822L0.787792 26.5948Z" fill="black"/>
<path opacity="0.2" d="M0.787792 42.918L0.690674 43.1821L6.07632 45.1696L6.17344 44.9055L0.787792 42.918Z" fill="black"/>
<path opacity="0.2" d="M0.787792 60.3667L0.690674 60.6309L6.07632 62.6183L6.17344 62.3542L0.787792 60.3667Z" fill="black"/>
<path opacity="0.2" d="M3.60957 77.8208L3.48804 78.0745L6.11008 79.3352L6.23162 79.0815L3.60957 77.8208Z" fill="black"/>
<path d="M36.9339 108.466C43.6411 108.466 49.0784 103.019 49.0784 96.2994C49.0784 89.5801 43.6411 84.1331 36.9339 84.1331C30.2266 84.1331 24.7893 89.5801 24.7893 96.2994C24.7893 103.019 30.2266 108.466 36.9339 108.466Z" fill="#F42534"/>
<path d="M35.7765 101.435L32.1418 96.7529L34.2556 95.106L35.9765 97.3228L41.7909 91.1741L43.7352 93.0194L35.7765 101.435Z" fill="white"/>
</g>
<defs>
<clipPath id="clip0_2143_12883">
<rect width="142" height="168" fill="white"/>
</clipPath>
</defs>
</svg>
